<?xml version="1.0" encoding="utf-8"?>
<!-- Generator: Adobe Illustrator 15.0.0, SVG Export Plug-In . SVG Version: 6.00 Build 0)  -->
<!DOCTYPE svg PUBLIC "-//W3C//DTD SVG 1.1//EN" "http://www.w3.org/Graphics/SVG/1.1/DTD/svg11.dtd">
<svg version="1.1" id="Layer_1" xmlns="http://www.w3.org/2000/svg" xmlns:xlink="http://www.w3.org/1999/xlink" x="0px" y="0px"
	 width="612px" height="238.68px" viewBox="0 0 612 238.68" enable-background="new 0 0 612 238.68" xml:space="preserve">
<g>
	<g>
		<g>
			<path fill="#7C6F67" d="M115.993,214.823c-7.459,1.721-13.914,4.444-31.987,4.444c-46.617,0-57.518-46.617-57.518-71.146v-9.515
				h93.282v-7.842c0-35.429-18.36-61.63-56.515-61.63c-43.223,0-63.304,30.937-63.304,79.322c0,59.957,28.927,90.223,78.938,90.223
				c14.965,0,27.253-1.674,37.103-4.731L115.993,214.823L115.993,214.823z M28.209,119.149c2.056-10.854,9.849-30.646,34.042-30.646
				c23.476,0,30.982,19.747,30.982,30.646H28.209L28.209,119.149z"/>
		</g>
		<g>
			<polygon fill="#7C6F67" points="163.997,0 187.186,0 187.186,234.903 163.997,234.903 			"/>
		</g>
		<g>
			<path fill="#7C6F67" d="M335.262,197.418h-0.67c-4.062,13.291-14.296,41.215-50.395,41.215
				c-27.922,0-41.501-23.143-41.501-50.012V72.866h23.141v89.839c0,27.922,0,52.785,23.811,52.785
				c30.648,0,45.614-46.666,45.614-75.927V72.866h23.143v162.036h-23.143V197.418L335.262,197.418z"/>
		</g>
		<g>
			<path fill="#7C6F67" d="M413.865,72.866h23.141v37.437h0.67c3.729-13.292,12.909-41.167,45.278-41.167
				c27.205,0,39.158,15.684,40.832,37.104h0.669c4.112-12.24,17.021-37.104,45.948-37.104c27.588,0,41.549,23.142,41.549,50.013
				v115.754H588.81v-89.889c0-28.257,0-52.785-23.811-52.785c-27.205,0-40.545,47-40.545,75.928v66.745h-23.141v-89.889
				c0-27.922,0-52.785-23.812-52.785c-26.87,0-40.497,46.666-40.497,75.927v66.746h-23.141V72.866H413.865z"/>
		</g>
		<g>
			<polygon fill="#7C6F67" points="358.307,45.039 242.601,45.039 242.601,30.504 358.307,30.504 			"/>
		</g>
	</g>
</g>
</svg>
